<?xml version="1.0" encoding="utf-8"?>
<!-- Generator: Adobe Illustrator 18.1.1, SVG Export Plug-In . SVG Version: 6.00 Build 0)  -->
<!DOCTYPE svg PUBLIC "-//W3C//DTD SVG 1.1//EN" "http://www.w3.org/Graphics/SVG/1.1/DTD/svg11.dtd">
<svg version="1.1" id="Layer_1" xmlns="http://www.w3.org/2000/svg" xmlns:xlink="http://www.w3.org/1999/xlink" x="0px" y="0px"
	 viewBox="0 0 64 64" enable-background="new 0 0 64 64" xml:space="preserve">
<g>
	<path fill="#ffffff" d="M32,64C14.355,64,0,49.645,0,32S14.355,0,32,0s32,14.355,32,32S49.645,64,32,64z M32,3.623
		C16.353,3.623,3.623,16.353,3.623,32S16.353,60.377,32,60.377S60.377,47.647,60.377,32S47.647,3.623,32,3.623z"/>
	<path fill="#ffffff" d="M31.377,23.469l0.033-0.047c0.04-0.068,0.083-0.128,0.123-0.192c-0.341-0.371-0.69-0.515-1.05-0.515
		c-0.38,0-0.771,0.16-1.165,0.388c-0.929,0.528-1.252,1.709-0.722,2.638l0.597,0.942L31.377,23.469z"/>
	<path fill="#ffffff" d="M55.785,25.276c-0.377-0.377-0.873-0.567-1.368-0.567c-0.495,0-0.991,0.189-1.368,0.567L42.785,35.541
		l-0.547-0.547l11.906-11.906c0.755-0.755,0.757-1.981,0.002-2.736c-0.377-0.377-0.873-0.566-1.368-0.566
		c-0.495,0-0.991,0.189-1.368,0.567L39.505,32.259l-0.547-0.547l10.264-10.265c0.755-0.756,0.757-1.98,0.002-2.736
		c-0.377-0.378-0.873-0.567-1.369-0.567c-0.493,0-0.989,0.188-1.367,0.567L36.313,28.886l0.084,0.119l0.9,1.327l0.02,0.029
		c4.389,6.373,4.255,12.435-0.38,17.07c-1.08,1.081-2.336,1.931-3.738,2.545c0.889,0.208,1.79,0.308,2.674,0.308
		c2.609,0,5.087-0.883,6.776-2.568l11.08-11.086c1.167-1.166,1.167-2.391,0.413-3.147c-0.377-0.377-0.871-0.566-1.365-0.566
		c-0.497,0-0.991,0.189-1.369,0.566l-6.16,6.162L44.7,39.098l11.085-11.086C56.54,27.257,56.54,26.032,55.785,25.276z"/>
	<path fill="#ffffff" d="M31.574,31.765l0.43-0.674l2.366-3.715l1.042-1.636c0.529-0.929,0.207-2.11-0.722-2.639
		c-0.396-0.227-0.788-0.39-1.17-0.39c-0.509,0-1.002,0.292-1.467,1.113l-0.05,0.071l-2.366,3.482l-0.962,1.418l0.101,0.102
		L31.574,31.765z"/>
	<path fill="#ffffff" d="M36.401,46.895c4.38-4.384,4.488-10.03,0.267-16.136v-0.001l-0.901-1.327l-0.995-1.271l-0.021-0.027
		l-2.307,3.645l0.381,0.598l0.013,0.024l-0.816,0.815l-0.019-0.019l-0.018,0.019l-0.817-0.815l0.017-0.024l-2.943-2.943
		L17.519,18.71c-0.377-0.378-0.875-0.567-1.369-0.567c-0.496,0-0.989,0.189-1.369,0.567c-0.755,0.755-0.755,1.98,0,2.735
		l10.267,10.265l-0.55,0.547L12.592,20.351c-0.376-0.377-0.873-0.566-1.367-0.566c-0.496,0-0.991,0.189-1.369,0.566
		c-0.755,0.755-0.755,1.982,0,2.736l11.908,11.906l-0.547,0.547L10.953,25.276c-0.38-0.377-0.875-0.567-1.368-0.567
		c-0.495,0-0.991,0.189-1.37,0.567c-0.755,0.756-0.755,1.981,0,2.737l11.087,11.086l-0.547,0.547l-6.163-6.162
		c-0.376-0.377-0.87-0.566-1.367-0.566c-0.496,0-0.989,0.189-1.369,0.566c-0.755,0.756-0.755,1.981,0.412,3.147l11.086,11.086
		c1.689,1.687,4.171,2.573,6.783,2.573c1.283,0,2.598-0.214,3.864-0.653C33.596,49.084,35.116,48.18,36.401,46.895z"/>
</g>
</svg>
