<?xml version="1.0" encoding="utf-8"?>
<!-- Generator: Adobe Illustrator 18.1.1, SVG Export Plug-In . SVG Version: 6.00 Build 0)  -->
<!DOCTYPE svg PUBLIC "-//W3C//DTD SVG 1.1//EN" "http://www.w3.org/Graphics/SVG/1.1/DTD/svg11.dtd">
<svg version="1.1" id="Layer_1" xmlns="http://www.w3.org/2000/svg" xmlns:xlink="http://www.w3.org/1999/xlink" x="0px" y="0px"
	 viewBox="0 0 64 64" enable-background="new 0 0 64 64" xml:space="preserve">
<g>
	<path fill="#ffffff" d="M32,10.867c-11.652,0-21.132,9.48-21.132,21.133c0,11.652,9.48,21.132,21.132,21.132
		c11.65,0,21.132-9.48,21.132-21.132C53.132,20.347,43.65,10.867,32,10.867z M40.088,26.176c1.495,0,2.709,1.213,2.709,2.709
		c0,1.496-1.213,2.709-2.709,2.709c-1.499,0-2.709-1.213-2.709-2.709C37.38,27.389,38.59,26.176,40.088,26.176z M24.04,26.176
		c1.499,0,2.709,1.213,2.709,2.709c0,1.496-1.21,2.709-2.709,2.709c-1.495,0-2.709-1.213-2.709-2.709
		C21.331,27.389,22.545,26.176,24.04,26.176z M32,43.9c-11.346,0-12.047-7.925-12.047-7.925c0.631,3.172,7.406,5.62,12.047,5.62
		c4.644,0,11.419-2.449,12.05-5.62C44.05,35.975,43.246,43.9,32,43.9z"/>
	<path fill="#ffffff" d="M32,64C14.355,64,0,49.645,0,32S14.355,0,32,0s32,14.355,32,32S49.645,64,32,64z M32,3.623
		C16.353,3.623,3.623,16.353,3.623,32S16.353,60.377,32,60.377S60.377,47.647,60.377,32S47.647,3.623,32,3.623z"/>
</g>
</svg>
