<?xml version="1.0" encoding="utf-8"?>
<!-- Generator: Adobe Illustrator 18.1.1, SVG Export Plug-In . SVG Version: 6.00 Build 0)  -->
<!DOCTYPE svg PUBLIC "-//W3C//DTD SVG 1.1//EN" "http://www.w3.org/Graphics/SVG/1.1/DTD/svg11.dtd">
<svg version="1.1" id="Layer_1" xmlns="http://www.w3.org/2000/svg" xmlns:xlink="http://www.w3.org/1999/xlink" x="0px" y="0px"
	 viewBox="0 0 64 64" enable-background="new 0 0 64 64" xml:space="preserve">
<g>
	<path fill="#ffffff" d="M32,64C14.355,64,0,49.645,0,32S14.355,0,32,0s32,14.355,32,32S49.645,64,32,64z M32,3.623
		C16.353,3.623,3.623,16.353,3.623,32S16.353,60.377,32,60.377S60.377,47.647,60.377,32S47.647,3.623,32,3.623z"/>
	<path fill="#ffffff" d="M44.083,34.866c-4.87,5.847-9.927,2.526-11.576,1.165c1.271-1.389,1.856-2.144,4.064-3.964
		c2.283,0.933,6.368-0.839,6.368-0.839c-2.748,0.721-4.849,0.312-5.594,0.115c0.158-0.126,2.87-2.088,3.691-3.222
		c2.269,0.07,4.144-1.879,4.144-1.879c-0.061-0.052-1.21,0.827-3.38,0.933c2.248-3.301,2.146-6.339,2.146-6.339
		s-0.83,2.772-2.941,5.812c-0.432-2.157,0.118-3.626,0.057-3.674c0,0-1.472,2.423-0.793,4.651c-1.153,1.319-2.974,2.459-3.646,2.969
		c-0.052-0.138-0.755-2.44-0.071-5.84c0,0-1.851,4.275-0.693,6.492c-1.417,1.091-1.797,1.358-4.165,4.005
		c-5.361-4.014-0.757-11.195,3.257-12.867c4.132-1.722,5.851-1.376,9.637-7.572C48.733,20.955,48.054,30.098,44.083,34.866z"/>
	<path fill="#ffffff" d="M21.196,34.242c2.441,1.116,4.132,2.629,5.295,4.078c0.014-0.042,0.031-0.077,0.045-0.125
		c2.208-7.948-9.932-6.841-9.932-6.841s1.677,2.581,2.611,5.394c1.083,3.262,5.5,5.972,7.09,2.098
		C25.156,37.304,23.516,35.617,21.196,34.242z"/>
	<path fill="#ffffff" d="M32.507,36.031c-0.014-0.018-0.837-0.755-0.825-0.772c-2.08,2.291-2.891,4.249-3.09,6.745
		c-0.314-0.858-0.946-2.232-2.104-3.683c-0.054,0.19-0.118,0.362-0.186,0.526c1.236,1.662,1.712,3.925,1.993,4.666
		c0,2.073,0.226,3.108,0.408,4.838c0,0,1.118,0.659,1.427-0.571C29.5,46.74,28.882,39.578,32.507,36.031z"/>
</g>
</svg>
