<?xml version="1.0" encoding="utf-8"?>
<!-- Generator: Adobe Illustrator 18.1.1, SVG Export Plug-In . SVG Version: 6.00 Build 0)  -->
<!DOCTYPE svg PUBLIC "-//W3C//DTD SVG 1.1//EN" "http://www.w3.org/Graphics/SVG/1.1/DTD/svg11.dtd">
<svg version="1.1" id="Layer_1" xmlns="http://www.w3.org/2000/svg" xmlns:xlink="http://www.w3.org/1999/xlink" x="0px" y="0px"
	 viewBox="0 0 64 64" enable-background="new 0 0 64 64" xml:space="preserve">
<g>
	<path fill="#ffffff" d="M49.84,40.085c0,0.473,0.268,0.89,0.804,1.246h0.496c0.384-0.222,0.651-0.576,0.801-1.058
		c0-0.473-0.267-0.889-0.801-1.246h-0.496C50.248,39.249,49.982,39.602,49.84,40.085 M40.112,40.085c0,0.473,0.267,0.89,0.804,1.246
		h0.494c0.393-0.222,0.662-0.576,0.805-1.058c0-0.473-0.269-0.889-0.805-1.246h-0.494C40.532,39.249,40.264,39.602,40.112,40.085
		 M49.84,37.258c0,0.473,0.268,0.884,0.804,1.232h0.496c0.384-0.222,0.651-0.576,0.801-1.058c0-0.472-0.267-0.889-0.801-1.246
		h-0.496C50.248,36.409,49.982,36.767,49.84,37.258 M40.112,37.258c0,0.473,0.267,0.884,0.804,1.232h0.494
		c0.393-0.222,0.662-0.576,0.805-1.058c0-0.472-0.269-0.889-0.805-1.246h-0.494C40.532,36.409,40.264,36.767,40.112,37.258
		 M49.84,34.417c0,0.475,0.268,0.889,0.804,1.247h0.496c0.384-0.224,0.651-0.581,0.801-1.073c0-0.472-0.267-0.884-0.801-1.232
		h-0.496C50.248,33.572,49.982,33.926,49.84,34.417 M40.112,34.417c0,0.475,0.267,0.889,0.804,1.247h0.494
		c0.393-0.224,0.662-0.581,0.805-1.073c0-0.472-0.269-0.884-0.805-1.232h-0.494C40.532,33.572,40.264,33.926,40.112,34.417
		 M49.84,31.576c0,0.475,0.268,0.889,0.804,1.247h0.496c0.384-0.224,0.651-0.581,0.801-1.072c0-0.473-0.267-0.885-0.801-1.233
		h-0.496C50.248,30.742,49.982,31.094,49.84,31.576 M47.4,31.576c0,0.475,0.272,0.889,0.817,1.247h0.481
		c0.396-0.224,0.669-0.581,0.82-1.072c0-0.473-0.275-0.885-0.82-1.233h-0.481C47.825,30.742,47.552,31.094,47.4,31.576
		 M40.112,31.576c0,0.475,0.267,0.889,0.804,1.247h0.494c0.393-0.224,0.662-0.581,0.805-1.072c0-0.473-0.269-0.885-0.805-1.233
		h-0.494C40.532,30.742,40.264,31.094,40.112,31.576 M49.84,28.735c0,0.475,0.268,0.889,0.804,1.247h0.496
		c0.384-0.224,0.651-0.577,0.801-1.06c0-0.472-0.267-0.889-0.801-1.246h-0.496C50.248,27.901,49.982,28.254,49.84,28.735
		 M44.974,28.735c0,0.475,0.27,0.889,0.807,1.247h0.495c0.384-0.224,0.651-0.577,0.803-1.06c0-0.472-0.268-0.889-0.803-1.246h-0.495
		C45.396,27.901,45.127,28.254,44.974,28.735 M40.112,28.735c0,0.475,0.267,0.889,0.804,1.247h0.494
		c0.393-0.224,0.662-0.577,0.805-1.06c0-0.472-0.269-0.889-0.805-1.246h-0.494C40.532,27.901,40.264,28.254,40.112,28.735
		 M49.84,25.908c0,0.473,0.268,0.885,0.804,1.233h0.496c0.384-0.213,0.651-0.567,0.801-1.059c0-0.472-0.267-0.887-0.801-1.246
		h-0.496C50.248,25.06,49.982,25.417,49.84,25.908 M42.537,25.908c0,0.473,0.271,0.885,0.816,1.233h0.484
		c0.393-0.213,0.666-0.567,0.817-1.059c0-0.472-0.272-0.887-0.817-1.246h-0.484C42.96,25.06,42.687,25.417,42.537,25.908
		 M40.112,25.908c0,0.473,0.267,0.885,0.804,1.233h0.494c0.393-0.213,0.662-0.567,0.805-1.059c0-0.472-0.269-0.887-0.805-1.246
		h-0.494C40.532,25.06,40.264,25.417,40.112,25.908 M49.84,23.068c0,0.472,0.268,0.889,0.804,1.245h0.496
		c0.384-0.222,0.651-0.581,0.801-1.073c0-0.473-0.267-0.883-0.801-1.231h-0.496C50.248,22.223,49.982,22.577,49.84,23.068
		 M40.112,23.068c0,0.472,0.267,0.889,0.804,1.245h0.494c0.393-0.222,0.662-0.581,0.805-1.073c0-0.473-0.269-0.883-0.805-1.231
		h-0.494C40.532,22.223,40.264,22.577,40.112,23.068 M35.726,40.085c0,0.473,0.268,0.89,0.803,1.246h0.496
		c0.382-0.222,0.65-0.576,0.804-1.058c0-0.473-0.269-0.889-0.804-1.246h-0.496C36.137,39.249,35.868,39.602,35.726,40.085
		 M25.998,40.085c0,0.473,0.268,0.89,0.803,1.246h0.496c0.391-0.222,0.662-0.576,0.804-1.058c0-0.473-0.268-0.889-0.804-1.246
		h-0.496C26.417,39.249,26.149,39.602,25.998,40.085 M35.726,37.258c0,0.473,0.268,0.884,0.803,1.232h0.496
		c0.382-0.222,0.65-0.576,0.804-1.058c0-0.472-0.269-0.889-0.804-1.246h-0.496C36.137,36.409,35.868,36.767,35.726,37.258
		 M25.998,37.258c0,0.473,0.268,0.884,0.803,1.232h0.496c0.391-0.222,0.662-0.576,0.804-1.058c0-0.472-0.268-0.889-0.804-1.246
		h-0.496C26.417,36.409,26.149,36.767,25.998,37.258 M35.726,34.417c0,0.475,0.268,0.889,0.803,1.247h0.496
		c0.382-0.224,0.65-0.581,0.804-1.073c0-0.472-0.269-0.884-0.804-1.232h-0.496C36.137,33.572,35.868,33.926,35.726,34.417
		 M25.998,34.417c0,0.475,0.268,0.889,0.803,1.247h0.496c0.391-0.224,0.662-0.581,0.804-1.073c0-0.472-0.268-0.884-0.804-1.232
		h-0.496C26.417,33.572,26.149,33.926,25.998,34.417 M35.726,31.576c0,0.475,0.268,0.889,0.803,1.247h0.496
		c0.382-0.224,0.65-0.581,0.804-1.072c0-0.473-0.269-0.885-0.804-1.233h-0.496C36.137,30.742,35.868,31.094,35.726,31.576
		 M33.287,31.576c0,0.475,0.272,0.889,0.817,1.247h0.482c0.394-0.224,0.666-0.581,0.816-1.072c0-0.473-0.271-0.885-0.816-1.233
		h-0.482C33.71,30.742,33.439,31.094,33.287,31.576 M30.862,31.576c0,0.475,0.268,0.889,0.803,1.247h0.496
		c0.382-0.224,0.653-0.581,0.804-1.072c0-0.473-0.27-0.885-0.804-1.233h-0.496C31.281,30.742,31.013,31.094,30.862,31.576
		 M28.423,31.576c0,0.475,0.27,0.889,0.818,1.247h0.48c0.394-0.224,0.666-0.581,0.817-1.072c0-0.473-0.271-0.885-0.817-1.233h-0.48
		C28.847,30.742,28.573,31.094,28.423,31.576 M25.998,31.576c0,0.475,0.268,0.889,0.803,1.247h0.496
		c0.391-0.224,0.662-0.581,0.804-1.072c0-0.473-0.268-0.885-0.804-1.233h-0.496C26.417,30.742,26.149,31.094,25.998,31.576
		 M35.726,28.735c0,0.475,0.268,0.889,0.803,1.247h0.496c0.382-0.224,0.65-0.577,0.804-1.06c0-0.472-0.269-0.889-0.804-1.246h-0.496
		C36.137,27.901,35.868,28.254,35.726,28.735 M25.998,28.735c0,0.475,0.268,0.889,0.803,1.247h0.496
		c0.391-0.224,0.662-0.577,0.804-1.06c0-0.472-0.268-0.889-0.804-1.246h-0.496C26.417,27.901,26.149,28.254,25.998,28.735
		 M35.726,25.908c0,0.473,0.268,0.885,0.803,1.233h0.496c0.382-0.213,0.65-0.567,0.804-1.059c0-0.472-0.269-0.887-0.804-1.246
		h-0.496C36.137,25.06,35.868,25.417,35.726,25.908 M25.998,25.908c0,0.473,0.268,0.885,0.803,1.233h0.496
		c0.391-0.213,0.662-0.567,0.804-1.059c0-0.472-0.268-0.887-0.804-1.246h-0.496C26.417,25.06,26.149,25.417,25.998,25.908
		 M33.287,23.068c0,0.472,0.272,0.889,0.817,1.245h0.482c0.394-0.222,0.666-0.581,0.816-1.073c0-0.473-0.271-0.883-0.816-1.231
		h-0.482C33.71,22.223,33.439,22.577,33.287,23.068 M30.862,23.068c0,0.472,0.268,0.889,0.803,1.245h0.496
		c0.382-0.222,0.653-0.581,0.804-1.073c0-0.473-0.27-0.883-0.804-1.231h-0.496C31.281,22.223,31.013,22.577,30.862,23.068
		 M28.423,23.068c0,0.472,0.27,0.889,0.818,1.245h0.48c0.394-0.222,0.666-0.581,0.817-1.073c0-0.473-0.271-0.883-0.817-1.231h-0.48
		C28.847,22.223,28.573,22.577,28.423,23.068 M21.785,40.085c0,0.473,0.267,0.89,0.803,1.246h0.495
		c0.386-0.222,0.652-0.576,0.805-1.058c0-0.473-0.269-0.889-0.805-1.246h-0.495C22.193,39.249,21.928,39.602,21.785,40.085
		 M16.92,40.085c0,0.473,0.268,0.89,0.804,1.246h0.496c0.383-0.222,0.652-0.576,0.804-1.058c0-0.473-0.269-0.889-0.804-1.246h-0.496
		C17.34,39.249,17.072,39.602,16.92,40.085 M14.481,40.085c0,0.473,0.272,0.89,0.818,1.246h0.482
		c0.393-0.222,0.665-0.576,0.817-1.058c0-0.473-0.272-0.889-0.817-1.246H15.3C14.906,39.249,14.633,39.602,14.481,40.085
		 M19.345,37.258c0,0.473,0.272,0.884,0.815,1.232h0.483c0.395-0.222,0.665-0.576,0.82-1.058c0-0.472-0.271-0.889-0.82-1.246H20.16
		C19.77,36.409,19.498,36.767,19.345,37.258 M12.055,37.258c0,0.473,0.269,0.884,0.804,1.232h0.497
		c0.393-0.222,0.661-0.576,0.804-1.058c0-0.472-0.268-0.889-0.804-1.246H12.86C12.476,36.409,12.208,36.767,12.055,37.258
		 M21.785,34.417c0,0.475,0.267,0.889,0.803,1.247h0.495c0.386-0.224,0.652-0.581,0.805-1.073c0-0.472-0.269-0.884-0.805-1.232
		h-0.495C22.193,33.572,21.928,33.926,21.785,34.417 M16.92,34.417c0,0.475,0.268,0.889,0.804,1.247h0.496
		c0.383-0.224,0.652-0.581,0.804-1.073c0-0.472-0.269-0.884-0.804-1.232h-0.496C17.34,33.572,17.072,33.926,16.92,34.417
		 M12.055,34.417c0,0.475,0.269,0.889,0.804,1.247h0.497c0.393-0.224,0.661-0.581,0.804-1.073c0-0.472-0.268-0.884-0.804-1.232
		H12.86C12.476,33.572,12.208,33.926,12.055,34.417 M21.785,31.576c0,0.475,0.267,0.889,0.803,1.247h0.495
		c0.386-0.224,0.652-0.581,0.805-1.072c0-0.473-0.269-0.885-0.805-1.233h-0.495C22.193,30.742,21.928,31.094,21.785,31.576
		 M12.055,31.576c0,0.475,0.269,0.889,0.804,1.247h0.497c0.393-0.224,0.661-0.581,0.804-1.072c0-0.473-0.268-0.885-0.804-1.233
		H12.86C12.476,30.742,12.208,31.094,12.055,31.576 M21.785,28.735c0,0.475,0.267,0.889,0.803,1.247h0.495
		c0.386-0.224,0.652-0.577,0.805-1.06c0-0.472-0.269-0.889-0.805-1.246h-0.495C22.193,27.901,21.928,28.254,21.785,28.735
		 M12.055,28.735c0,0.475,0.269,0.889,0.804,1.247h0.497c0.393-0.224,0.661-0.577,0.804-1.06c0-0.472-0.268-0.889-0.804-1.246H12.86
		C12.476,27.901,12.208,28.254,12.055,28.735 M21.785,25.908c0,0.473,0.267,0.885,0.803,1.233h0.495
		c0.386-0.213,0.652-0.567,0.805-1.059c0-0.472-0.269-0.887-0.805-1.246h-0.495C22.193,25.06,21.928,25.417,21.785,25.908
		 M12.055,25.908c0,0.473,0.269,0.885,0.804,1.233h0.497c0.393-0.213,0.661-0.567,0.804-1.059c0-0.472-0.268-0.887-0.804-1.246
		H12.86C12.476,25.06,12.208,25.417,12.055,25.908 M19.345,23.068c0,0.472,0.272,0.889,0.815,1.245h0.483
		c0.395-0.222,0.665-0.581,0.82-1.073c0-0.473-0.271-0.883-0.82-1.231H20.16C19.77,22.223,19.498,22.577,19.345,23.068
		 M16.92,23.068c0,0.472,0.268,0.889,0.804,1.245h0.496c0.383-0.222,0.652-0.581,0.804-1.073c0-0.473-0.269-0.883-0.804-1.231
		h-0.496C17.34,22.223,17.072,22.577,16.92,23.068 M14.481,23.068c0,0.472,0.272,0.889,0.818,1.245h0.482
		c0.393-0.222,0.665-0.581,0.817-1.073c0-0.473-0.272-0.883-0.817-1.231H15.3C14.906,22.223,14.633,22.577,14.481,23.068"/>
	<path fill="#ffffff" d="M32,64C14.355,64,0,49.645,0,32S14.355,0,32,0s32,14.355,32,32S49.645,64,32,64z M32,3.623
		C16.353,3.623,3.623,16.353,3.623,32S16.353,60.377,32,60.377S60.377,47.647,60.377,32S47.647,3.623,32,3.623z"/>
</g>
</svg>
