<?xml version="1.0" encoding="utf-8"?>
<!-- Generator: Adobe Illustrator 18.1.1, SVG Export Plug-In . SVG Version: 6.00 Build 0)  -->
<!DOCTYPE svg PUBLIC "-//W3C//DTD SVG 1.1//EN" "http://www.w3.org/Graphics/SVG/1.1/DTD/svg11.dtd">
<svg version="1.1" id="Layer_1" xmlns="http://www.w3.org/2000/svg" xmlns:xlink="http://www.w3.org/1999/xlink" x="0px" y="0px"
	 viewBox="0 0 64 64" enable-background="new 0 0 64 64" xml:space="preserve">
<g>
	<path fill="#ffffff" d="M20.547,21.504c-2.727,0-4.01,1.216-4.01,3.856V38.65c0,2.64,1.283,3.856,4.01,3.856h2.226V21.504H20.547z"
		/>
	<path fill="#ffffff" d="M38.075,21.504c-0.043-2.382-1.988-4.308-4.382-4.308h-3.387c-2.392,0-4.337,1.926-4.38,4.308h-0.002
		v21.002h12.153V21.504H38.075z M27.465,21.504c0.04-1.532,1.299-2.771,2.842-2.771h3.387c1.545,0,2.802,1.239,2.842,2.771H27.465z"
		/>
	<path fill="#ffffff" d="M43.453,21.504h-2.222v21.002h2.222c2.724,0,4.012-1.216,4.012-3.856V25.36
		C47.465,22.72,46.177,21.504,43.453,21.504z"/>
	<path fill="#ffffff" d="M32,64C14.355,64,0,49.645,0,32S14.355,0,32,0s32,14.355,32,32S49.645,64,32,64z M32,3.623
		C16.353,3.623,3.623,16.353,3.623,32S16.353,60.377,32,60.377S60.377,47.647,60.377,32S47.647,3.623,32,3.623z"/>
</g>
</svg>
