<?xml version="1.0" encoding="utf-8"?>
<!-- Generator: Adobe Illustrator 18.1.1, SVG Export Plug-In . SVG Version: 6.00 Build 0)  -->
<!DOCTYPE svg PUBLIC "-//W3C//DTD SVG 1.1//EN" "http://www.w3.org/Graphics/SVG/1.1/DTD/svg11.dtd">
<svg version="1.1" id="Layer_1" xmlns="http://www.w3.org/2000/svg" xmlns:xlink="http://www.w3.org/1999/xlink" x="0px" y="0px"
	 viewBox="0 0 64 64" enable-background="new 0 0 64 64" xml:space="preserve">
<g>
	<path fill="#ffffff" d="M32.001,8.807c-8.271,0-14.974,6.705-14.974,14.972v23.509h29.946V23.778
		C46.973,15.512,40.27,8.807,32.001,8.807z M32.001,35.191c-6.204,0-11.229-5.026-11.229-11.226s5.025-11.226,11.229-11.226
		c6.203,0,11.225,5.026,11.225,11.226S38.204,35.191,32.001,35.191z"/>
	<path fill="#ffffff" d="M32.001,25.033c-0.174,0-0.348-0.043-0.509-0.127c-0.349-0.186-0.566-0.55-0.566-0.946v-7.877
		c0-0.594,0.481-1.076,1.075-1.076c0.592,0,1.071,0.481,1.071,1.076v5.875l3.359-2.233c0.491-0.328,1.158-0.196,1.486,0.299
		c0.328,0.491,0.195,1.158-0.297,1.486l-5.025,3.344C32.413,24.974,32.209,25.033,32.001,25.033L32.001,25.033z"/>
	<path fill="#ffffff" d="M32,64C14.355,64,0,49.645,0,32S14.355,0,32,0s32,14.355,32,32S49.645,64,32,64z M32,3.623
		C16.353,3.623,3.623,16.353,3.623,32S16.353,60.377,32,60.377S60.377,47.647,60.377,32S47.647,3.623,32,3.623z"/>
</g>
</svg>
