<?xml version="1.0" encoding="utf-8"?>
<!-- Generator: Adobe Illustrator 18.1.1, SVG Export Plug-In . SVG Version: 6.00 Build 0)  -->
<!DOCTYPE svg PUBLIC "-//W3C//DTD SVG 1.1//EN" "http://www.w3.org/Graphics/SVG/1.1/DTD/svg11.dtd">
<svg version="1.1" id="Layer_1" xmlns="http://www.w3.org/2000/svg" xmlns:xlink="http://www.w3.org/1999/xlink" x="0px" y="0px"
	 viewBox="0 0 64 64" enable-background="new 0 0 64 64" xml:space="preserve">
<g>
	<path fill="#ffffff" d="M32,64C14.355,64,0,49.645,0,32S14.355,0,32,0s32,14.355,32,32S49.645,64,32,64z M32,3.623
		C16.353,3.623,3.623,16.353,3.623,32S16.353,60.377,32,60.377S60.377,47.647,60.377,32S47.647,3.623,32,3.623z"/>
	<path fill="#ffffff" d="M53.762,42.023v-2.788l-8.274-4.585v-4.316c0-0.744-0.601-1.887-1.347-1.887
		c-0.745,0-1.349,1.143-1.349,1.887v4.316l-8.271,4.585v2.788l8.271-2.337v4.745l-2.967,2.015V47.9l4.316-1.218l4.316,1.218v-1.454
		l-2.967-2.015v-4.745L53.762,42.023z"/>
	<path fill="#ffffff" d="M29.476,42.023v-2.788l-8.269-4.585v-4.316c0-0.744-0.604-1.887-1.349-1.887s-1.349,1.143-1.349,1.887
		v4.316l-8.271,4.585v2.788l8.271-2.337v4.745l-2.967,2.015V47.9l4.316-1.218l4.314,1.218v-1.454l-2.965-2.015v-4.745L29.476,42.023
		z"/>
	<path fill="#ffffff" d="M41.618,24.186v-2.789l-8.271-4.584v-4.316c0-0.745-0.601-1.887-1.347-1.887
		c-0.745,0-1.349,1.143-1.349,1.887v4.316l-8.271,4.584v2.789l8.271-2.337v4.745l-2.967,2.015v1.454L32,28.845l4.314,1.218v-1.454
		l-2.965-2.015v-4.745L41.618,24.186z"/>
</g>
</svg>
