<?xml version="1.0" encoding="utf-8"?>
<!-- Generator: Adobe Illustrator 18.1.1, SVG Export Plug-In . SVG Version: 6.00 Build 0)  -->
<!DOCTYPE svg PUBLIC "-//W3C//DTD SVG 1.1//EN" "http://www.w3.org/Graphics/SVG/1.1/DTD/svg11.dtd">
<svg version="1.1" id="Layer_1" xmlns="http://www.w3.org/2000/svg" xmlns:xlink="http://www.w3.org/1999/xlink" x="0px" y="0px"
	 viewBox="0 0 64 64" enable-background="new 0 0 64 64" xml:space="preserve">
<g>
	<path fill="#ffffff" d="M32,64C14.355,64,0,49.645,0,32S14.355,0,32,0s32,14.355,32,32S49.645,64,32,64z M32,3.623
		C16.353,3.623,3.623,16.353,3.623,32S16.353,60.377,32,60.377S60.377,47.647,60.377,32S47.647,3.623,32,3.623z"/>
	<path fill="#ffffff" d="M46.822,19.446l-30.73-0.257c-1.882-0.016-2.848,0.847-2.862,2.726l-0.048,5.63l-0.132,15.797
		c-0.015,1.881,0.897,2.395,2.781,2.41l30.728,0.258c1.883,0.015,3.907-0.473,3.925-2.355l0.113-13.527l0.066-7.9
		C50.678,20.349,48.703,19.462,46.822,19.446z M44.147,46.217c-0.593-0.436-5.539-6.697-14.143-7.483c0,0,0.046-0.132,0.08-0.309
		c0.933-4.298-1.061-7.232-3.313-8.915c-2.274-1.863-5.188-3.415-7.919-7.532l0.024-2.789c-0.002,0.289,0.065,0.913,0.171,1.248
		c1.593,5.138,10.89,3.191,16.861,11.875c0,0,1.149,0.137,1.93-1.248c0,0-1.593-0.137-1.682-1.347c0,0,3.278,0.684,5.233,2.3
		c0,0,0.021,0.712-2.276,0.705c-0.454,0.026-0.651,0.057-1.383,0.764c0,0-1.856,1.981-3.722,1.936
		c-0.569-0.028-1.002-0.245-1.032-0.416c0,0-0.071-0.242,0.353-0.15c0,0,0.996,0.276,1.475-0.153c0,0-0.425-0.613-1.165-0.612
		c-0.443-0.029-0.919,0.114-1.221,0.518c0,0-1.494,1.854,2.715,3.851C41.261,41.2,44.65,45.191,44.147,46.217z"/>
</g>
</svg>
