<?xml version="1.0" encoding="utf-8"?>
<!-- Generator: Adobe Illustrator 18.1.1, SVG Export Plug-In . SVG Version: 6.00 Build 0)  -->
<!DOCTYPE svg PUBLIC "-//W3C//DTD SVG 1.1//EN" "http://www.w3.org/Graphics/SVG/1.1/DTD/svg11.dtd">
<svg version="1.1" id="Layer_1" xmlns="http://www.w3.org/2000/svg" xmlns:xlink="http://www.w3.org/1999/xlink" x="0px" y="0px"
	 viewBox="0 0 64 64" enable-background="new 0 0 64 64" xml:space="preserve">
<g>
	<path fill="#ffffff" d="M32,64C14.355,64,0,49.645,0,32S14.355,0,32,0s32,14.355,32,32S49.645,64,32,64z M32,3.623
		C16.353,3.623,3.623,16.353,3.623,32S16.353,60.377,32,60.377S60.377,47.647,60.377,32S47.647,3.623,32,3.623z"/>
	<path fill="#ffffff" d="M35.905,11.244c-0.906-0.169-1.834-0.265-2.775-0.32c-0.374-0.021-0.749-0.057-1.13-0.057
		c-0.572,0-1.133,0.038-1.692,0.085c-0.747,0.064-1.488,0.156-2.212,0.291C18.294,13.078,10.868,21.666,10.868,32
		c0,10.335,7.426,18.922,17.228,20.756c0.724,0.136,1.466,0.228,2.212,0.291c0.559,0.047,1.12,0.085,1.692,0.085
		c0.381,0,0.756-0.035,1.13-0.057c0.941-0.054,1.869-0.151,2.775-0.32C45.708,50.922,53.132,42.335,53.132,32
		C53.132,21.666,45.708,13.078,35.905,11.244z M46.342,20.396c-0.053,0.041-0.106,0.085-0.164,0.126
		c-0.548,0.393-1.28,0.77-2.16,1.116c-0.735-2.107-1.675-4.013-2.794-5.623C43.189,17.153,44.919,18.644,46.342,20.396z
		 M26.212,36.847c-0.123-0.014-0.254-0.02-0.375-0.035c-2.277-0.291-4.387-0.747-6.29-1.323c-0.12-1.137-0.203-2.295-0.203-3.488
		c0-3.224,0.476-6.261,1.29-8.98c1.691,0.541,3.683,0.943,5.801,1.199c-0.241,2.513-0.364,5.167-0.364,7.781
		C26.071,33.616,26.119,35.244,26.212,36.847z M22.683,37.379c1.011,0.202,2.064,0.367,3.147,0.501
		c0.146,0.018,0.303,0.026,0.452,0.043c0.225,3.163,0.631,6.179,1.211,8.71c-1.823-0.179-3.447-0.469-4.875-0.823
		c-1.42-2.553-2.44-5.696-2.934-9.163C20.639,36.922,21.636,37.17,22.683,37.379z M27.133,32c0-2.769,0.128-5.34,0.346-7.667
		c1.486,0.142,3.013,0.215,4.521,0.215c1.331,0,2.676-0.061,3.993-0.171c0.217,2.316,0.343,4.873,0.343,7.624
		c0,1.75-0.052,3.417-0.145,5C34.83,37.118,33.44,37.2,32,37.2c-1.63,0-3.198-0.103-4.724-0.251
		C27.185,35.382,27.133,33.731,27.133,32z M37.183,37.972c0.327-0.034,0.668-0.052,0.987-0.092c1.083-0.134,2.138-0.299,3.147-0.501
		c1.048-0.209,2.044-0.456,2.999-0.732c-0.495,3.467-1.514,6.61-2.934,9.163c-1.566,0.388-3.381,0.689-5.413,0.863
		C36.548,44.146,36.955,41.134,37.183,37.972z M38.163,36.811c-0.296,0.038-0.608,0.054-0.909,0.087
		c0.094-1.62,0.145-3.266,0.145-4.899c0-2.594-0.12-5.229-0.357-7.724c2.308-0.25,4.494-0.67,6.324-1.256
		c0.814,2.719,1.29,5.756,1.29,8.98c0,1.193-0.082,2.351-0.204,3.488C42.55,36.065,40.439,36.52,38.163,36.811z M39.09,14.941
		c1.632,1.807,2.988,4.226,3.956,7.043c-1.656,0.542-3.725,0.981-6.116,1.241c-0.413-3.737-1.094-7.098-2.032-9.449
		C36.356,14.007,37.764,14.389,39.09,14.941z M32,13.524c0.577,0,1.145,0.033,1.709,0.085c0.907,2.044,1.706,5.41,2.178,9.716
		c-1.224,0.103-2.524,0.16-3.887,0.16c-1.56,0-3.033-0.075-4.413-0.207c0.468-4.23,1.25-7.556,2.14-9.598
		C30.474,13.586,31.23,13.524,32,13.524z M28.534,13.861c-0.913,2.333-1.581,5.633-1.989,9.302
		c-2.169-0.264-4.059-0.677-5.592-1.179c0.969-2.816,2.325-5.236,3.961-7.043C26.066,14.461,27.28,14.101,28.534,13.861z
		 M22.776,16.015c-1.119,1.61-2.059,3.515-2.794,5.623c-0.881-0.345-1.611-0.723-2.159-1.116c-0.06-0.041-0.112-0.085-0.164-0.126
		C19.081,18.644,20.811,17.153,22.776,16.015z M13.522,32c0-4.007,1.294-7.71,3.47-10.738c0.689,0.533,1.59,1.006,2.65,1.413
		c-0.864,2.827-1.362,5.981-1.362,9.326c0,1.068,0.068,2.108,0.164,3.134c-1.905-0.657-3.561-1.443-4.876-2.337
		c0.021,0.44,0.051,0.877,0.104,1.309c1.376,0.842,3.029,1.58,4.893,2.195c0.44,3.409,1.397,6.515,2.724,9.14
		c-1.235-0.384-2.282-0.816-3.051-1.283c0.716,0.8,1.494,1.54,2.337,2.206c0.458,0.147,0.94,0.281,1.437,0.407
		c0.248,0.416,0.494,0.83,0.763,1.213C17.255,44.785,13.522,38.827,13.522,32z M24.914,49.059c-0.532-0.587-1.022-1.258-1.492-1.967
		c1.364,0.278,2.83,0.486,4.337,0.623c0.236,0.887,0.494,1.704,0.775,2.425C27.28,49.899,26.066,49.539,24.914,49.059z
		 M33.709,50.392c-0.564,0.052-1.132,0.085-1.709,0.085c-0.77,0-1.526-0.063-2.272-0.156c-0.302-0.693-0.592-1.543-0.862-2.517
		c1.041,0.068,2.09,0.104,3.134,0.104c0.862,0,1.731-0.028,2.593-0.075C34.314,48.828,34.019,49.691,33.709,50.392z M32,46.847
		c-1.195,0-2.322-0.055-3.413-0.134c-0.557-2.337-1-5.281-1.246-8.691c1.506,0.143,3.048,0.242,4.659,0.242
		c1.421,0,2.785-0.079,4.123-0.191c-0.245,3.408-0.696,6.348-1.251,8.678C33.946,46.807,32.996,46.847,32,46.847z M39.09,49.059
		c-1.326,0.552-2.734,0.934-4.191,1.166c0.291-0.73,0.557-1.561,0.798-2.467c1.697-0.133,3.353-0.355,4.881-0.666
		C40.11,47.801,39.619,48.472,39.09,49.059z M41.224,47.985c0.268-0.383,0.517-0.797,0.763-1.213
		c0.498-0.126,0.98-0.259,1.436-0.407c0.844-0.666,1.621-1.407,2.338-2.206c-0.769,0.467-1.815,0.899-3.049,1.283
		c1.325-2.625,2.282-5.731,2.723-9.14c1.863-0.614,3.518-1.353,4.893-2.195c0.053-0.432,0.083-0.869,0.103-1.309
		c-1.314,0.894-2.971,1.68-4.874,2.337c0.094-1.026,0.162-2.066,0.162-3.134c0-3.344-0.496-6.499-1.361-9.326
		c1.061-0.407,1.961-0.88,2.649-1.413c2.178,3.028,3.472,6.731,3.472,10.738C50.478,38.827,46.746,44.785,41.224,47.985z"/>
</g>
</svg>
