<?xml version="1.0" encoding="utf-8"?>
<!-- Generator: Adobe Illustrator 18.1.1, SVG Export Plug-In . SVG Version: 6.00 Build 0)  -->
<!DOCTYPE svg PUBLIC "-//W3C//DTD SVG 1.1//EN" "http://www.w3.org/Graphics/SVG/1.1/DTD/svg11.dtd">
<svg version="1.1" id="Layer_1" xmlns="http://www.w3.org/2000/svg" xmlns:xlink="http://www.w3.org/1999/xlink" x="0px" y="0px"
	 viewBox="0 0 64 64" enable-background="new 0 0 64 64" xml:space="preserve">
<g>
	<path fill="#ffffff" d="M32,64C14.355,64,0,49.645,0,32S14.355,0,32,0s32,14.355,32,32S49.645,64,32,64z M32,3.623
		C16.353,3.623,3.623,16.353,3.623,32S16.353,60.377,32,60.377S60.377,47.647,60.377,32S47.647,3.623,32,3.623z"/>
	<path fill="#ffffff" d="M36.026,22.997h-8.052c-1.29,0-2.337,1.045-2.337,2.336v10.956c0,1.29,1.047,2.337,2.337,2.337h0.014v7.761
		c0,1.29,1.017,2.337,2.271,2.337h3.481c1.255,0,2.271-1.046,2.271-2.337v-7.761h0.014c1.29,0,2.335-1.047,2.335-2.337V25.333
		C38.361,24.043,37.316,22.997,36.026,22.997z"/>
	<circle fill="#ffffff" cx="32" cy="18.43" r="3.813"/>
	<path fill="#ffffff" d="M49.962,23.908h-6.899c-1.106,0-2.002,0.896-2.002,2.002v9.389c0,1.106,0.896,2.002,2.002,2.002h0.012v6.65
		c0,1.106,0.87,2.002,1.946,2.002h2.983c1.075,0,1.946-0.896,1.946-2.002v-6.65h0.012c1.106,0,2.002-0.897,2.002-2.003V25.91
		C51.965,24.804,51.068,23.908,49.962,23.908z"/>
	<circle fill="#ffffff" cx="46.512" cy="19.995" r="3.268"/>
	<path fill="#ffffff" d="M20.936,23.908h-6.898c-1.106,0-2.002,0.896-2.002,2.002v9.389c0,1.106,0.896,2.003,2.002,2.003h0.009v6.65
		c0,1.106,0.873,2.002,1.948,2.002h2.984c1.075,0,1.946-0.896,1.946-2.002v-6.65h0.012c1.106,0,2.002-0.897,2.002-2.003V25.91
		C22.936,24.804,22.042,23.908,20.936,23.908z"/>
	<circle fill="#ffffff" cx="17.486" cy="19.995" r="3.267"/>
</g>
</svg>
