<?xml version="1.0" encoding="utf-8"?>
<!-- Generator: Adobe Illustrator 18.1.1, SVG Export Plug-In . SVG Version: 6.00 Build 0)  -->
<!DOCTYPE svg PUBLIC "-//W3C//DTD SVG 1.1//EN" "http://www.w3.org/Graphics/SVG/1.1/DTD/svg11.dtd">
<svg version="1.1" id="Layer_1" xmlns="http://www.w3.org/2000/svg" xmlns:xlink="http://www.w3.org/1999/xlink" x="0px" y="0px"
	 viewBox="0 0 64 64" enable-background="new 0 0 64 64" xml:space="preserve">
<g>
	<path fill="#ffffff" d="M32,64C14.355,64,0,49.645,0,32S14.355,0,32,0s32,14.355,32,32S49.645,64,32,64z M32,3.623
		C16.353,3.623,3.623,16.353,3.623,32S16.353,60.377,32,60.377S60.377,47.647,60.377,32S47.647,3.623,32,3.623z"/>
	<path fill="#ffffff" d="M31.821,16.719l-4.573,4.573c-0.391,0.394-0.75,0.811-1.071,1.248c-0.067,0.097-0.133,0.196-0.199,0.292
		c2.209-0.599,4.554-0.564,6.745,0.106l0.373-0.373l2.521-2.521c2.212-2.212,5.797-2.21,8.008,0c2.211,2.212,2.211,5.797,0,8.009
		l-2.874,2.873l-0.591,0.592l-0.576,0.575h-0.001l-0.959,0.96c-0.996,0.998-2.278,1.543-3.581,1.639h0.002
		c-0.002,0-0.002,0.002-0.002,0.002c-0.274,0.024-0.512,0.026-0.712,0.019c-0.442-0.021-0.699-0.09-0.699-0.09l0,0
		c-0.001,0-0.001,0-0.001-0.002c-1.105-0.193-2.162-0.717-3.014-1.568c-0.831-0.83-1.347-1.854-1.554-2.924
		c-0.007-0.031-0.01-0.061-0.017-0.09c-0.968,0.078-1.914,0.486-2.656,1.226l-1.521,1.521c0.521,1.321,1.314,2.564,2.382,3.632
		c1.067,1.068,2.309,1.861,3.63,2.384c0.243,0.094,0.487,0.182,0.736,0.259c0.21,0.064,0.417,0.125,0.626,0.177
		c0.019,0.005,0.031,0.007,0.046,0.009c0.038,0.009,0.074,0.017,0.113,0.026c2.191,0.505,4.509,0.311,6.603-0.578
		c0.258-0.111,0.513-0.229,0.762-0.359c0.017-0.009,0.029-0.017,0.043-0.024c0.041-0.021,0.08-0.045,0.121-0.066
		c0.107-0.061,0.212-0.116,0.317-0.179c0,0,0,0,0.005,0c0.758-0.448,1.473-0.998,2.126-1.651l4.574-4.573
		c4.173-4.174,4.177-10.948-0.002-15.127C42.772,12.542,36,12.542,31.821,16.719z"/>
	<path fill="#ffffff" d="M32.177,46.62l4.571-4.571c0.396-0.394,0.754-0.814,1.074-1.25c0.068-0.094,0.132-0.193,0.197-0.292
		c-2.205,0.599-4.549,0.566-6.741-0.106l-0.375,0.375l-2.52,2.519c-2.214,2.215-5.797,2.212-8.01,0
		c-2.211-2.212-2.212-5.795,0.001-8.007l2.873-2.875l0.591-0.59l0.577-0.575v-0.002l0.958-0.958
		c0.999-0.998,2.275-1.542,3.581-1.641l0,0l0,0c0.276-0.024,0.511-0.026,0.712-0.017c0.442,0.017,0.698,0.087,0.698,0.087
		c0.001,0,0.001,0,0.002,0c0,0,0,0,0,0.002c1.104,0.193,2.159,0.717,3.014,1.568c0.828,0.83,1.349,1.851,1.554,2.922
		c0.006,0.031,0.009,0.061,0.015,0.092c0.968-0.078,1.917-0.486,2.657-1.226l1.52-1.521c-0.52-1.323-1.312-2.564-2.381-3.632
		c-1.068-1.068-2.307-1.863-3.628-2.384c-0.244-0.097-0.489-0.182-0.737-0.259c-0.209-0.064-0.419-0.127-0.63-0.177
		c-0.015-0.005-0.028-0.007-0.04-0.012c-0.039-0.009-0.078-0.014-0.116-0.024c-2.191-0.505-4.509-0.314-6.603,0.578
		c-0.258,0.111-0.512,0.226-0.764,0.356c-0.011,0.007-0.025,0.017-0.039,0.024c-0.041,0.021-0.081,0.045-0.124,0.068
		c-0.106,0.059-0.212,0.116-0.316,0.177c-0.002,0-0.004,0.002-0.004,0.002c-0.761,0.451-1.475,1-2.129,1.651l-4.571,4.571
		c-4.177,4.177-4.176,10.95,0,15.127C21.228,50.797,27.998,50.8,32.177,46.62z"/>
</g>
</svg>
