<?xml version="1.0" encoding="utf-8"?>
<!-- Generator: Adobe Illustrator 18.1.1, SVG Export Plug-In . SVG Version: 6.00 Build 0)  -->
<!DOCTYPE svg PUBLIC "-//W3C//DTD SVG 1.1//EN" "http://www.w3.org/Graphics/SVG/1.1/DTD/svg11.dtd">
<svg version="1.1" id="Layer_1" xmlns="http://www.w3.org/2000/svg" xmlns:xlink="http://www.w3.org/1999/xlink" x="0px" y="0px"
	 viewBox="0 0 64 64" enable-background="new 0 0 64 64" xml:space="preserve">
<g>
	<path fill="#ffffff" d="M47.697,27.048c-1.609-2.187-3.545-5.877-4.304-8.198c-0.759-2.322-1.67-4.222-2.028-4.222
		c-0.358,0-1.27,1.607-2.028,3.572c-0.759,1.964-2.257,3.17-3.33,2.679c-1.071-0.491-1.618-1.807-1.217-2.923
		c0.403-1.116-0.913-1.892-2.922-1.723c-2.009,0.167-4.384,1.146-5.276,2.172c-0.894,1.027-2.755,2.643-4.142,3.591
		c-1.382,0.948-4.085,2.637-6.005,3.754c-1.92,1.116-2.608,3.942-1.528,6.279c1.078,2.337,1.771,5.113,1.542,6.169
		c-0.231,1.055,0.521,2.045,1.67,2.198c1.151,0.154,3.377-0.65,4.951-1.785c1.575-1.136,4.899-1.888,7.388-1.67
		c2.489,0.216,5.19,1.605,6.006,3.084c0.816,1.48,3.236,2.837,5.377,3.016c2.145,0.179,4.408-0.88,5.033-2.354
		c0.625-1.473,1.722-4.249,2.436-6.169C50.034,32.597,49.303,29.236,47.697,27.048z"/>
	<path fill="#ffffff" d="M41.308,47.748c0.592,1.186,1.724,1.294,2.515,0.239c0.791-1.054,0.305-2.024-1.079-2.156
		C41.362,45.699,40.713,46.561,41.308,47.748z"/>
	<path fill="#ffffff" d="M32,64C14.355,64,0,49.645,0,32S14.355,0,32,0s32,14.355,32,32S49.645,64,32,64z M32,3.623
		C16.353,3.623,3.623,16.353,3.623,32S16.353,60.377,32,60.377S60.377,47.647,60.377,32S47.647,3.623,32,3.623z"/>
</g>
</svg>
