<?xml version="1.0" encoding="utf-8"?>
<!-- Generator: Adobe Illustrator 18.1.1, SVG Export Plug-In . SVG Version: 6.00 Build 0)  -->
<!DOCTYPE svg PUBLIC "-//W3C//DTD SVG 1.1//EN" "http://www.w3.org/Graphics/SVG/1.1/DTD/svg11.dtd">
<svg version="1.1" id="Layer_1" xmlns="http://www.w3.org/2000/svg" xmlns:xlink="http://www.w3.org/1999/xlink" x="0px" y="0px"
	 viewBox="0 0 64 64" enable-background="new 0 0 64 64" xml:space="preserve">
<g>
	<path fill="#ffffff" d="M51.623,38.82l-0.021-1.943l-3.73-0.127l0.292,2.1l-2.004,0.025l-0.249-3.1l4.928,0.109
		c-0.264-6.152-1.985-12.379-5.751-15.044c0,0,3.513,10.784,0.27,9.676c-2.23-0.888-6.58-13.545-6.58-13.545
		c-1.052-0.301-2.191-0.422-3.226-0.675c0,0,0.283,11.832-3.713,11.832c-3.993,0-3.522-11.813-3.522-11.813
		c-1.001,0.199-2.57,0.625-3.623,0.989c0,0-4.041,11.883-5.936,13.151c-3.2,2.288-0.199-9.124-0.199-9.124
		c-3.215,3.728-4.884,9.141-5.167,14.809l5.447,0.067l-0.296,2.961l-1.758-0.053l0.46-1.904l-4.791-0.054l0.019,2.155l-1.945-0.033
		c-0.037,2.123,5.992,1.076,21.162,1.344c16.802,0.297,21.763-0.465,21.787-1.769L51.623,38.82z"/>
	<path fill="#ffffff" d="M21.308,18.379c-1.177,0.55-1.656,2.501-1.656,2.501s-2.46,8.725-0.673,7.492
		c1.545-1.445,4.39-10.278,4.39-10.278S22.588,17.78,21.308,18.379z"/>
	<path fill="#ffffff" d="M32.893,27.227c-0.018,0.019-0.038,0.038-0.053,0.058C32.884,27.246,32.909,27.222,32.893,27.227z"/>
	<path fill="#ffffff" d="M34.261,16.514c0,0-0.985-1.208-2.378-1.232c-1.395-0.024-2.42,1.293-2.42,1.293s-0.353,9.914,2.4,9.914
		C34.621,26.489,34.261,16.514,34.261,16.514z"/>
	<path fill="#ffffff" d="M40.489,18.093c0,0,2.847,8.834,4.388,10.278c1.788,1.233-0.669-7.492-0.669-7.492
		s-0.481-1.951-1.656-2.501C41.27,17.78,40.489,18.093,40.489,18.093z"/>
	<path fill="#ffffff" d="M32,64C14.355,64,0,49.645,0,32S14.355,0,32,0s32,14.355,32,32S49.645,64,32,64z M32,3.623
		C16.353,3.623,3.623,16.353,3.623,32S16.353,60.377,32,60.377S60.377,47.647,60.377,32S47.647,3.623,32,3.623z"/>
</g>
</svg>
