<?xml version="1.0" encoding="utf-8"?>
<!-- Generator: Adobe Illustrator 18.1.1, SVG Export Plug-In . SVG Version: 6.00 Build 0)  -->
<!DOCTYPE svg PUBLIC "-//W3C//DTD SVG 1.1//EN" "http://www.w3.org/Graphics/SVG/1.1/DTD/svg11.dtd">
<svg version="1.1" id="Layer_1" xmlns="http://www.w3.org/2000/svg" xmlns:xlink="http://www.w3.org/1999/xlink" x="0px" y="0px"
	 viewBox="0 0 64 64" enable-background="new 0 0 64 64" xml:space="preserve">
<g>
	<path fill="#ffffff" d="M43.386,13.661c0.237,0,0.489,0.013,0.761,0.041c1.643,0.159,3.546,1.666,3.777,4.55v0.96
		c-0.217,2.761-2.301,6.167-8.394,10.439c-6.09-4.272-8.176-7.678-8.389-10.439v-0.96c0.23-2.884,2.132-4.39,3.776-4.55
		c0.269-0.028,0.525-0.041,0.759-0.041c1.9,0,2.812,0.821,3.854,2.065C40.573,14.482,41.487,13.661,43.386,13.661"/>
	<path fill="#ffffff" d="M22.8,16.673c0-1.163-0.401-1.745-1.205-1.745c-0.222,0-0.383,0.016-0.492,0.047
		c-0.253,0.047-0.465,0.071-0.638,0.071c-0.205,0-0.377-0.075-0.519-0.224c-0.142-0.149-0.212-0.334-0.212-0.555
		c0-0.55,0.347-0.825,1.035-0.825c0.097,0,0.206,0.008,0.334,0.023l1.25,0.166c0.47,0.062,0.959,0.094,1.462,0.094
		c0.486,0,1.02-0.039,1.603-0.119l1.062-0.142c0.124-0.015,0.236-0.023,0.33-0.023c0.691,0,1.037,0.276,1.037,0.825
		c0,0.22-0.07,0.406-0.212,0.555c-0.142,0.149-0.315,0.224-0.518,0.224c-0.158,0-0.37-0.024-0.637-0.071
		c-0.112-0.031-0.277-0.047-0.495-0.047c-0.803,0-1.203,0.583-1.203,1.745v9.459c0,1.179,0.4,1.77,1.203,1.77
		c0.126,0,0.29-0.016,0.495-0.048c0.297-0.047,0.508-0.071,0.637-0.071c0.488,0,0.73,0.252,0.73,0.755
		c0,0.567-0.346,0.849-1.037,0.849c-0.033,0-0.086,0-0.166,0c-0.064-0.015-0.118-0.023-0.164-0.023l-1.228-0.189
		c-0.409-0.063-0.841-0.095-1.298-0.095c-0.66,0-1.248,0.04-1.769,0.12l-1.083,0.164c-0.034,0-0.086,0.008-0.166,0.023
		c-0.079,0-0.142,0-0.186,0c-0.678,0-1.017-0.282-1.017-0.849c0-0.503,0.242-0.755,0.731-0.755c0.078,0,0.29,0.017,0.638,0.048
		c0.171,0.047,0.337,0.071,0.492,0.071c0.804,0,1.205-0.59,1.205-1.77V16.673z"/>
	<path fill="#ffffff" d="M23.755,49.9c-2.091,0-4.629-0.755-5.847-2.264c-1.219-1.511-1.83-3.555-1.83-6.133
		c0-2.61,0.614-4.659,1.841-6.146c1.226-1.485,3.8-2.228,5.955-2.228c2.059,0,4.579,0.723,5.8,2.17
		c1.218,1.446,1.828,3.404,1.828,5.873c0,2.673-0.618,4.796-1.851,6.368C28.414,49.113,25.861,49.9,23.755,49.9z M23.803,34.827
		c-1.511,0-3.566,0.582-4.398,1.746c-0.833,1.164-1.251,2.798-1.251,4.905c0,2.14,0.419,3.794,1.251,4.966
		c0.832,1.172,2.88,1.757,4.373,1.757c1.461,0,3.506-0.608,4.363-1.828c0.856-1.217,1.284-2.873,1.284-4.965
		c0-2.108-0.407-3.73-1.226-4.871C27.381,35.397,25.328,34.827,23.803,34.827z"/>
	<path fill="#ffffff" d="M45.677,35.821L35.275,47.989h5.92c1.354,0,2.237-0.126,2.654-0.377c0.417-0.252,0.625-0.779,0.625-1.581
		c0-0.235-0.022-0.557-0.07-0.966c-0.051-0.41-0.072-0.771-0.072-1.085c0-0.63,0.3-0.944,0.897-0.944
		c0.566,0,0.849,0.33,0.849,0.991c0,0.172-0.025,0.503-0.072,0.991c-0.047,0.487-0.071,0.96-0.071,1.415
		c0,0.441,0.01,0.731,0.028,0.873c0.075,0.551,0.114,0.92,0.114,1.109c0,0.74-0.45,1.11-1.349,1.11
		c-0.377,0-0.741-0.009-1.085-0.025c-1.419-0.062-2.901-0.093-4.443-0.093c-0.771,0-1.671,0.023-2.695,0.07
		c-0.33,0.031-0.756,0.048-1.275,0.048c-0.743,0-1.245-0.095-1.512-0.285c-0.27-0.189-0.403-0.537-0.403-1.042
		c0-0.49,0.179-0.949,0.543-1.375l9.954-11.804h-5.746c-0.969,0-1.629,0.175-1.98,0.524c-0.353,0.349-0.53,0.992-0.53,1.928
		c0,0.159,0,0.406,0,0.739c0,0.333,0,0.578,0,0.738c0,0.793-0.299,1.191-0.896,1.191c-0.579,0-0.874-0.323-0.874-0.968
		c0-0.298,0.04-0.734,0.119-1.308c0.078-0.574,0.118-1.011,0.118-1.311c0-0.203-0.025-0.507-0.072-0.907
		c-0.046-0.4-0.07-0.704-0.07-0.909c0-0.848,0.426-1.258,1.274-1.226h0.637c0.301,0.016,0.724,0.016,1.272,0
		c0.222,0,0.497,0,0.828,0c0.393,0,0.641,0,0.755,0h4.882h0.943c1.133,0,1.698,0.394,1.698,1.182
		C46.172,35.05,46.007,35.429,45.677,35.821z"/>
	<path fill="#ffffff" d="M32,64C14.355,64,0,49.645,0,32S14.355,0,32,0s32,14.355,32,32S49.645,64,32,64z M32,3.623
		C16.353,3.623,3.623,16.353,3.623,32S16.353,60.377,32,60.377S60.377,47.647,60.377,32S47.647,3.623,32,3.623z"/>
</g>
</svg>
