<?xml version="1.0" encoding="utf-8"?>
<!-- Generator: Adobe Illustrator 18.1.1, SVG Export Plug-In . SVG Version: 6.00 Build 0)  -->
<!DOCTYPE svg PUBLIC "-//W3C//DTD SVG 1.1//EN" "http://www.w3.org/Graphics/SVG/1.1/DTD/svg11.dtd">
<svg version="1.1" id="Layer_1" xmlns="http://www.w3.org/2000/svg" xmlns:xlink="http://www.w3.org/1999/xlink" x="0px" y="0px"
	 viewBox="0 0 64 64" enable-background="new 0 0 64 64" xml:space="preserve">
<g>
	<path fill="#ffffff" d="M32,64C14.355,64,0,49.645,0,32S14.355,0,32,0s32,14.355,32,32S49.645,64,32,64z M32,3.623
		C16.353,3.623,3.623,16.353,3.623,32S16.353,60.377,32,60.377S60.377,47.647,60.377,32S47.647,3.623,32,3.623z"/>
	<path fill="#ffffff" d="M52.73,41.715l-3.015-1.769c0.1-1.216-0.048-2.401-0.403-3.5l2.528-2.409l-1.745-2.761l-3.259,1.25
		c-0.851-0.794-1.866-1.435-2.991-1.86l-0.001-0.002l-0.308-3.481l-3.248-0.356l-1.055,3.331c-1.191,0.173-2.315,0.58-3.32,1.173
		h-0.001l-2.913-1.928l-2.303,2.317l1.947,2.9c-0.584,1-0.98,2.12-1.149,3.329l-3.329,1.077l0.375,3.242l3.48,0.288v0.002
		c0.432,1.106,1.073,2.119,1.887,2.976l-1.233,3.27l2.772,1.729l2.397-2.547c0.555,0.178,1.129,0.297,1.732,0.364
		c0.598,0.067,1.19,0.072,1.769,0.025l1.787,2.999l3.08-1.086l-0.495-3.457c0.975-0.66,1.826-1.512,2.486-2.501l0,0l3.459,0.474
		L52.73,41.715z M40.278,41.896l-1.473-0.067l-0.709-1.292l-0.861-1.198l0.564-1.36l0.398-1.421l1.417-0.407l1.36-0.576l1.202,0.859
		l1.297,0.697l0.076,1.475l0.263,1.452l-1.106,0.98l-0.971,1.111L40.278,41.896z"/>
	<path fill="#ffffff" d="M28.742,20.56l-2.139,0.766l0.31,2.099l2.269,0.116l0,0c0.3,0.712,0.741,1.353,1.282,1.895l-0.735,2.149
		l1.834,1.065l1.506-1.702l0,0c0.366,0.106,0.743,0.173,1.131,0.203c0.392,0.029,0.771,0.025,1.149-0.025h0.001l1.223,1.915
		l1.978-0.769L38.16,26.04c0.621-0.449,1.153-1.02,1.565-1.677c0.001,0,0.001,0,0.001,0l2.253,0.236l0.632-2.025l-1.995-1.091
		c0,0,0,0,0-0.001c0.038-0.794-0.082-1.555-0.33-2.259c-0.001,0-0.001,0-0.001-0.002l1.593-1.617l-1.19-1.755l-2.093,0.878
		c-0.573-0.501-1.238-0.9-1.978-1.151l-0.271-2.252l-2.116-0.166l-0.618,2.187c-0.77,0.134-1.494,0.422-2.136,0.822
		c-0.001,0.002-0.002,0.002-0.004,0.002l-1.926-1.191l-1.447,1.553l1.323,1.843l0,0C29.062,19.036,28.824,19.771,28.742,20.56z
		 M32.841,20.453l0.225-0.934l0.915-0.291l0.871-0.403l0.795,0.533l0.856,0.429l0.083,0.954l0.201,0.936l-0.699,0.661l-0.608,0.737
		l-0.948-0.135l-0.958-0.014l-0.489-0.822l-0.586-0.763L32.841,20.453z"/>
	<path fill="#ffffff" d="M29.067,36.441l0.816-2.63l-2.586-1.407v-0.002c0.045-1.027-0.11-2.019-0.436-2.936l2.064-2.097
		l-1.547-2.277l-2.712,1.146c-0.742-0.65-1.61-1.163-2.57-1.493l-0.354-2.92l-2.745-0.209l-0.794,2.83c-0.001,0-0.001,0-0.002,0
		c-1,0.179-1.934,0.553-2.765,1.084l-2.507-1.545l-1.876,2.012l1.718,2.389c-0.461,0.857-0.769,1.81-0.876,2.835l-2.773,0.998
		l0.405,2.723l2.939,0.146c0,0,0,0,0.001,0c0.392,0.921,0.962,1.751,1.67,2.449l0,0l-0.949,2.792l2.382,1.38l1.945-2.205
		c0.471,0.131,0.962,0.216,1.47,0.257c0.508,0.038,1.006,0.026,1.493-0.027c0,0,0.001,0,0.002,0l1.585,2.474l2.564-1.002
		l-0.513-2.897c0.805-0.586,1.494-1.32,2.025-2.173l0,0L29.067,36.441z M19.403,34.303l-1.241-0.018l-0.636-1.067l-0.759-0.985
		l0.44-1.158l0.295-1.208l1.183-0.382l1.13-0.521l1.034,0.689l1.109,0.554l0.108,1.237l0.261,1.216l-0.906,0.858l-0.788,0.96
		L19.403,34.303z"/>
</g>
</svg>
